<?xml version="1.0" standalone="no"?>
<!DOCTYPE svg PUBLIC "-//W3C//DTD SVG 20010904//EN"
 "http://www.w3.org/TR/2001/REC-SVG-20010904/DTD/svg10.dtd">
<svg version="1.0" xmlns="http://www.w3.org/2000/svg"
 width="512.000000pt" height="512.000000pt" viewBox="0 0 512.000000 512.000000"
 preserveAspectRatio="xMidYMid meet">
<metadata>
Created by potrace 1.14, written by Peter Selinger 2001-2017
</metadata>
<g transform="translate(0.000000,512.000000) scale(0.100000,-0.100000)"
fill="#000000" stroke="none">
<path d="M1175 4309 c4 -5 0 -9 -7 -9 -9 0 -9 -3 2 -10 8 -5 10 -10 4 -10 -14
0 -13 -32 1 -42 7 -5 7 -8 0 -8 -11 0 -12 -131 -1 -149 4 -6 4 -11 -1 -11 -4
0 -8 -29 -8 -64 0 -35 2 -63 5 -61 3 2 6 -5 6 -16 0 -10 -3 -19 -6 -19 -8 0
-5 -74 4 -88 4 -7 2 -12 -3 -12 -6 0 -11 -5 -11 -11 0 -5 4 -7 10 -4 5 3 7 0
5 -7 -9 -23 -12 -129 -3 -134 4 -3 5 -11 2 -19 -9 -23 -10 -79 -2 -102 4 -13
4 -23 0 -23 -9 0 -8 -72 2 -88 4 -7 3 -12 -3 -12 -11 0 -9 -19 3 -39 6 -10 5
-12 -2 -7 -16 9 -15 -7 0 -22 9 -9 9 -12 0 -12 -7 0 -12 -5 -12 -11 0 -5 4 -7
10 -4 5 3 7 0 5 -7 -9 -23 -12 -129 -3 -134 4 -3 5 -11 2 -19 -9 -23 -10 -79
-2 -102 4 -13 4 -23 0 -23 -9 0 -8 -72 2 -88 4 -7 3 -12 -3 -12 -11 0 -9 -19
3 -39 6 -10 5 -12 -2 -7 -16 9 -15 -7 0 -22 9 -9 9 -12 0 -12 -7 0 -12 -5 -12
-11 0 -5 4 -7 10 -4 5 3 7 0 5 -7 -9 -23 -12 -129 -3 -134 4 -3 5 -11 2 -19
-9 -23 -10 -79 -2 -102 4 -13 4 -23 0 -23 -9 0 -8 -72 2 -88 4 -7 3 -12 -3
-12 -11 0 -9 -19 3 -39 6 -10 5 -12 -2 -7 -16 9 -15 -7 0 -22 9 -9 9 -12 0
-12 -7 0 -12 -5 -12 -11 0 -5 4 -7 10 -4 5 3 7 0 5 -7 -9 -23 -12 -129 -3
-134 4 -3 5 -11 2 -19 -9 -23 -10 -79 -2 -102 4 -13 4 -23 0 -23 -9 0 -8 -72
2 -88 4 -7 3 -12 -3 -12 -11 0 -9 -19 3 -39 6 -10 5 -12 -2 -7 -16 9 -15 -7 0
-22 9 -9 9 -12 0 -12 -7 0 -12 -5 -12 -11 0 -5 4 -7 10 -4 5 3 7 0 5 -7 -9
-23 -12 -129 -3 -134 4 -3 5 -11 2 -19 -9 -23 -10 -79 -2 -103 4 -12 4 -22 0
-22 -9 0 -8 -72 2 -88 4 -7 3 -12 -3 -12 -11 0 -9 -19 3 -39 6 -10 5 -12 -2
-7 -16 9 -15 -7 0 -22 9 -9 9 -12 0 -12 -7 0 -12 -5 -12 -11 0 -5 4 -8 9 -5 5
3 6 -8 2 -27 -8 -42 -6 -150 3 -165 4 -7 4 -12 -1 -12 -4 0 -8 -29 -8 -64 0
-35 2 -63 5 -61 3 2 6 -5 6 -16 0 -10 -3 -19 -6 -19 -3 0 -5 -49 -5 -110 0
-120 -4 -113 63 -112 18 0 32 -5 32 -11 0 -9 2 -9 8 0 8 13 29 12 51 -1 9 -6
12 -5 7 2 -4 7 4 10 24 10 16 -1 30 -6 30 -12 0 -7 3 -8 8 -1 9 13 104 16 96
3 -3 -5 3 -4 14 3 17 11 24 10 38 -2 10 -8 15 -9 11 -2 -5 8 14 11 68 10 50 0
72 -4 68 -11 -5 -7 -2 -7 8 0 18 14 49 14 50 0 0 -6 4 -2 9 9 5 11 9 14 9 7 1
-7 6 -10 11 -7 6 4 18 1 27 -7 14 -11 16 -11 8 1 -6 11 -4 13 8 8 8 -3 17 0
19 6 2 7 4 339 3 739 0 606 2 728 13 733 8 3 18 3 23 -1 5 -3 9 1 9 8 0 10 2
10 8 0 6 -8 24 -11 55 -8 28 3 47 1 47 -5 0 -6 6 -7 13 -2 20 12 87 12 80 -1
-5 -8 -3 -8 8 0 8 5 26 10 42 9 15 0 27 4 27 10 0 6 3 5 8 -2 4 -7 32 -10 75
-8 37 1 67 -2 67 -7 0 -5 6 -6 13 -1 18 12 101 11 109 -1 6 -8 8 -8 8 0 0 6
17 10 40 9 23 -1 40 3 40 9 0 7 3 7 8 -1 8 -13 119 -12 141 1 9 6 12 5 7 -2
-8 -13 132 -11 153 2 9 6 12 5 8 -1 -5 -8 19 -10 73 -8 53 1 80 -2 80 -9 0 -7
3 -7 8 -1 10 14 105 14 114 1 5 -7 8 -7 8 -1 0 14 110 14 110 1 0 -7 3 -8 8
-1 4 6 19 10 35 11 21 0 27 -5 28 -20 0 -12 1 -343 1 -736 0 -393 4 -722 9
-730 5 -8 9 -10 9 -5 0 15 50 17 68 3 13 -11 14 -11 8 0 -8 14 19 12 43 -2 9
-6 12 -5 7 2 -4 7 4 10 24 10 16 -1 30 -6 30 -12 0 -7 3 -7 8 1 8 13 29 12 51
-1 9 -6 12 -5 7 2 -4 7 4 10 24 10 16 -1 30 -6 30 -12 0 -7 3 -8 8 -1 9 13
104 16 96 3 -3 -5 3 -4 14 3 17 11 24 10 38 -2 10 -8 15 -9 11 -2 -9 15 63 15
82 0 11 -9 13 -9 8 0 -6 9 3 11 32 9 48 -4 62 17 58 82 -1 23 1 42 6 42 4 0 5
6 1 12 -10 16 -11 57 -2 86 4 12 4 22 0 22 -8 0 -7 283 2 305 3 8 2 15 -2 15
-8 0 -6 219 2 228 3 3 -2 14 -11 25 -10 11 -12 17 -5 13 9 -6 12 5 9 43 -1 28
1 51 6 51 4 0 5 6 1 12 -10 16 -11 57 -2 86 4 12 4 22 0 22 -8 0 -6 219 2 228
3 3 -2 14 -11 25 -10 11 -12 17 -5 13 9 -6 12 5 9 43 -1 28 1 51 6 51 4 0 5 6
1 12 -10 16 -11 57 -2 86 4 12 4 22 0 22 -8 0 -7 283 2 305 3 8 2 15 -2 15 -8
0 -6 219 2 228 3 3 -2 14 -11 25 -10 11 -12 17 -5 13 9 -6 12 5 9 43 -1 28 1
51 6 51 4 0 5 6 1 12 -10 16 -11 57 -2 86 4 12 4 22 0 22 -8 0 -6 219 2 228 3
3 -2 14 -11 25 -10 11 -12 17 -5 13 9 -6 12 5 9 43 -1 28 1 51 6 51 4 0 5 6 1
12 -10 16 -11 57 -2 86 4 12 4 22 0 22 -8 0 -7 283 2 305 3 8 2 15 -2 15 -8 0
-7 203 2 225 3 8 -3 19 -12 24 -9 6 -12 11 -6 11 8 0 12 23 13 61 0 34 -2 60
-5 57 -3 -3 -21 -2 -40 2 -21 5 -34 4 -34 -2 0 -6 -5 -6 -14 1 -11 9 -15 9
-19 -1 -3 -7 -6 -8 -6 -3 -1 9 -248 12 -257 3 -2 -2 -28 -1 -59 2 -31 3 -57 4
-60 2 -2 -2 -42 -4 -88 -4 l-85 0 0 -676 c0 -372 -1 -686 -1 -697 -1 -19 -7
-20 -120 -20 -73 1 -117 -3 -114 -9 4 -5 1 -6 -8 0 -16 10 -220 13 -214 4 2
-4 -2 -7 -10 -7 -8 0 -12 4 -9 9 3 4 -11 7 -30 6 -20 -2 -36 -7 -36 -13 0 -5
-4 -4 -8 3 -9 13 -58 12 -81 -3 -9 -5 -12 -4 -8 3 5 7 -11 10 -47 9 -31 -1
-52 -6 -49 -11 4 -5 1 -6 -8 0 -19 12 -129 13 -153 1 -12 -6 -16 -6 -12 1 3 6
-12 10 -39 9 -28 0 -42 -4 -38 -11 4 -6 0 -5 -8 1 -12 10 -18 10 -29 0 -7 -7
-10 -7 -7 -1 4 8 -11 11 -48 11 -30 -1 -52 -4 -50 -7 2 -4 -2 -7 -10 -7 -8 0
-12 4 -10 8 3 4 -15 7 -40 6 -28 0 -42 -4 -38 -11 4 -6 0 -5 -8 1 -12 10 -18
10 -29 0 -7 -7 -10 -7 -7 -1 5 8 -22 11 -93 10 -62 -1 -101 2 -103 8 -2 6 -3
320 -3 699 1 546 -2 686 -11 682 -7 -2 -13 1 -13 7 0 7 -4 7 -13 -1 -10 -7
-17 -7 -24 0 -6 6 -13 7 -16 2 -3 -4 -37 -6 -76 -3 -39 3 -71 3 -71 0 0 -3
-57 -3 -126 0 -69 3 -128 2 -130 -1 -2 -3 -24 -3 -49 1 -30 5 -45 3 -45 -4 0
-6 -4 -5 -9 3 -5 8 -11 9 -15 3 -4 -7 -17 -7 -36 -2 -19 5 -28 5 -25 -1z"/>
</g>
</svg>
